<svg width="117" height="22" viewBox="0 0 117 22" fill="none" xmlns="http://www.w3.org/2000/svg">
<g clip-path="url(#clip0_851_137)">
<circle cx="11" cy="11" r="11" fill="url(#paint0_linear_851_137)"/>
<rect x="3" y="5" width="12" height="12" rx="6" stroke="black" stroke-width="0.5"/>
<rect x="7" y="5" width="12" height="12" rx="6" stroke="black" stroke-width="0.5" stroke-linecap="round" stroke-dasharray="2 2"/>
</g>
<path d="M31.0146 14.598C31.3626 15.306 31.8306 15.882 32.4186 16.326C33.0066 16.77 33.6606 16.992 34.3806 16.992C35.2446 16.992 35.9346 16.776 36.4506 16.344C36.9786 15.912 37.2426 15.336 37.2426 14.616C37.2426 14.1 37.1046 13.674 36.8286 13.338C36.5646 13.002 36.2286 12.732 35.8206 12.528C35.4126 12.324 34.8666 12.096 34.1826 11.844C33.3786 11.544 32.7306 11.262 32.2386 10.998C31.7466 10.734 31.3266 10.362 30.9786 9.882C30.6426 9.402 30.4746 8.79 30.4746 8.046C30.4746 7.062 30.8406 6.288 31.5726 5.724C32.3166 5.148 33.2586 4.86 34.3986 4.86C35.3586 4.86 36.1746 5.1 36.8466 5.58C37.5186 6.048 38.0046 6.744 38.3046 7.668L37.1166 8.082C36.9486 7.458 36.6186 6.96 36.1266 6.588C35.6466 6.204 35.0826 6.012 34.4346 6.012C33.6426 6.012 33.0006 6.198 32.5086 6.57C32.0166 6.93 31.7706 7.428 31.7706 8.064C31.7706 8.568 31.9026 8.988 32.1666 9.324C32.4426 9.648 32.7786 9.912 33.1746 10.116C33.5826 10.32 34.1226 10.548 34.7946 10.8C35.6106 11.1 36.2646 11.382 36.7566 11.646C37.2486 11.91 37.6686 12.288 38.0166 12.78C38.3646 13.26 38.5386 13.878 38.5386 14.634C38.5386 15.33 38.3646 15.942 38.0166 16.47C37.6806 16.998 37.2006 17.412 36.5766 17.712C35.9646 18 35.2446 18.144 34.4166 18.144C32.5206 18.144 31.0146 17.16 29.8986 15.192L31.0146 14.598ZM44.3337 16.866C44.7177 16.866 45.1137 16.782 45.5217 16.614C45.9297 16.434 46.2597 16.206 46.5117 15.93L47.4657 16.776C47.0937 17.16 46.6197 17.478 46.0437 17.73C45.4677 17.982 44.9217 18.108 44.4057 18.108C43.5897 18.108 42.8577 17.928 42.2097 17.568C41.5737 17.208 41.0757 16.71 40.7157 16.074C40.3557 15.426 40.1757 14.7 40.1757 13.896C40.1757 13.092 40.3557 12.372 40.7157 11.736C41.0757 11.1 41.5737 10.602 42.2097 10.242C42.8577 9.882 43.5897 9.702 44.4057 9.702C44.9217 9.702 45.4677 9.828 46.0437 10.08C46.6197 10.332 47.0937 10.65 47.4657 11.034L46.5117 11.88C46.2597 11.604 45.9297 11.382 45.5217 11.214C45.1137 11.034 44.7177 10.944 44.3337 10.944C43.4937 10.944 42.8037 11.22 42.2637 11.772C41.7357 12.312 41.4717 13.02 41.4717 13.896C41.4717 14.772 41.7357 15.486 42.2637 16.038C42.8037 16.59 43.4937 16.866 44.3337 16.866ZM52.6829 16.956C53.4629 16.956 54.0989 16.674 54.5909 16.11C55.0949 15.534 55.3469 14.802 55.3469 13.914C55.3469 13.026 55.0949 12.3 54.5909 11.736C54.0989 11.16 53.4629 10.872 52.6829 10.872C51.9029 10.872 51.2669 11.154 50.7749 11.718C50.2829 12.282 50.0369 13.014 50.0369 13.914C50.0369 14.814 50.2829 15.546 50.7749 16.11C51.2669 16.674 51.9029 16.956 52.6829 16.956ZM52.6829 9.702C53.4509 9.702 54.1349 9.882 54.7349 10.242C55.3349 10.602 55.8029 11.106 56.1389 11.754C56.4749 12.39 56.6429 13.11 56.6429 13.914C56.6429 14.718 56.4749 15.444 56.1389 16.092C55.8029 16.728 55.3349 17.226 54.7349 17.586C54.1349 17.946 53.4509 18.126 52.6829 18.126C51.9269 18.126 51.2489 17.946 50.6489 17.586C50.0489 17.226 49.5809 16.728 49.2449 16.092C48.9089 15.444 48.7409 14.718 48.7409 13.914C48.7409 13.11 48.9089 12.39 49.2449 11.754C49.5809 11.106 50.0489 10.602 50.6489 10.242C51.2489 9.882 51.9269 9.702 52.6829 9.702ZM62.6217 16.956C63.4137 16.956 64.0557 16.674 64.5477 16.11C65.0517 15.534 65.3037 14.796 65.3037 13.896C65.3037 13.008 65.0517 12.282 64.5477 11.718C64.0557 11.142 63.4137 10.854 62.6217 10.854C62.1537 10.854 61.7157 10.992 61.3077 11.268C60.8997 11.544 60.5697 11.916 60.3177 12.384C60.0777 12.852 59.9577 13.356 59.9577 13.896C59.9577 14.448 60.0777 14.958 60.3177 15.426C60.5577 15.894 60.8817 16.266 61.2897 16.542C61.7097 16.818 62.1537 16.956 62.6217 16.956ZM62.6397 9.702C63.4077 9.702 64.0917 9.882 64.6917 10.242C65.2917 10.602 65.7597 11.1 66.0957 11.736C66.4317 12.372 66.5997 13.092 66.5997 13.896C66.5997 14.712 66.4317 15.444 66.0957 16.092C65.7597 16.728 65.2917 17.226 64.6917 17.586C64.0917 17.946 63.4077 18.126 62.6397 18.126C62.1477 18.126 61.6437 17.988 61.1277 17.712C60.6237 17.424 60.2277 17.058 59.9397 16.614V21.852H58.6437V9.702H59.9397V11.196C60.2277 10.728 60.6237 10.362 61.1277 10.098C61.6317 9.834 62.1357 9.702 62.6397 9.702ZM72.1163 18.09C71.3483 18.09 70.6643 17.91 70.0643 17.55C69.4643 17.19 68.9963 16.692 68.6603 16.056C68.3243 15.42 68.1563 14.7 68.1563 13.896C68.1563 13.092 68.3243 12.372 68.6603 11.736C68.9963 11.1 69.4643 10.602 70.0643 10.242C70.6643 9.882 71.3483 9.702 72.1163 9.702C72.8843 9.702 73.5143 9.858 74.0063 10.17C74.4983 10.482 74.8523 10.806 75.0683 11.142C75.2963 11.478 75.4463 11.754 75.5183 11.97C75.7583 12.618 75.8783 13.278 75.8783 13.95C75.8783 14.106 75.8723 14.232 75.8603 14.328C75.8483 14.412 75.8423 14.466 75.8423 14.49H69.5063C69.6143 15.198 69.9083 15.78 70.3883 16.236C70.8803 16.692 71.4563 16.92 72.1163 16.92C72.6443 16.92 73.0883 16.836 73.4483 16.668C73.8083 16.488 74.0603 16.314 74.2043 16.146C74.3603 15.978 74.5043 15.798 74.6363 15.606L75.6443 16.182C75.4043 16.698 74.9783 17.148 74.3663 17.532C73.7663 17.904 73.0163 18.09 72.1163 18.09ZM74.5643 13.32C74.3963 11.688 73.5803 10.872 72.1163 10.872C71.4443 10.872 70.8683 11.1 70.3883 11.556C69.9083 12.012 69.6143 12.606 69.5063 13.338L74.5643 13.32ZM79.4451 7.704V18H78.1491V5.004H79.4451L84.2691 13.986L89.0931 5.004H90.4071V18H89.1111V7.704L84.9171 15.534H83.6211L79.4451 7.704ZM96.6289 18.126C95.8729 18.126 95.1949 17.946 94.5949 17.586C93.9949 17.226 93.5269 16.728 93.1909 16.092C92.8549 15.456 92.6869 14.736 92.6869 13.932C92.6869 13.128 92.8549 12.408 93.1909 11.772C93.5269 11.124 93.9949 10.62 94.5949 10.26C95.1949 9.9 95.8729 9.72 96.6289 9.72C97.1089 9.72 97.5829 9.852 98.0509 10.116C98.5309 10.38 98.9509 10.764 99.3109 11.268V9.702H100.607V18H99.3109V16.56C98.9509 17.1 98.5369 17.496 98.0689 17.748C97.6129 18 97.1329 18.126 96.6289 18.126ZM96.6469 16.956C97.1149 16.956 97.5529 16.83 97.9609 16.578C98.3689 16.314 98.6989 15.954 98.9509 15.498C99.2029 15.03 99.3289 14.508 99.3289 13.932C99.3289 13.368 99.2029 12.852 98.9509 12.384C98.6989 11.916 98.3689 11.55 97.9609 11.286C97.5529 11.022 97.1149 10.89 96.6469 10.89C95.8669 10.89 95.2249 11.178 94.7209 11.754C94.2289 12.318 93.9829 13.044 93.9829 13.932C93.9829 14.82 94.2289 15.546 94.7209 16.11C95.2249 16.674 95.8669 16.956 96.6469 16.956ZM103.648 10.854H102.154V9.702H103.648V6.84H104.944V9.702H106.906V10.854H104.944V18H103.648V10.854ZM111.791 18.09C111.023 18.09 110.339 17.91 109.739 17.55C109.139 17.19 108.671 16.692 108.335 16.056C107.999 15.42 107.831 14.7 107.831 13.896C107.831 13.092 107.999 12.372 108.335 11.736C108.671 11.1 109.139 10.602 109.739 10.242C110.339 9.882 111.023 9.702 111.791 9.702C112.559 9.702 113.189 9.858 113.681 10.17C114.173 10.482 114.527 10.806 114.743 11.142C114.971 11.478 115.121 11.754 115.193 11.97C115.433 12.618 115.553 13.278 115.553 13.95C115.553 14.106 115.547 14.232 115.535 14.328C115.523 14.412 115.517 14.466 115.517 14.49H109.181C109.289 15.198 109.583 15.78 110.063 16.236C110.555 16.692 111.131 16.92 111.791 16.92C112.319 16.92 112.763 16.836 113.123 16.668C113.483 16.488 113.735 16.314 113.879 16.146C114.035 15.978 114.179 15.798 114.311 15.606L115.319 16.182C115.079 16.698 114.653 17.148 114.041 17.532C113.441 17.904 112.691 18.09 111.791 18.09ZM114.239 13.32C114.071 11.688 113.255 10.872 111.791 10.872C111.119 10.872 110.543 11.1 110.063 11.556C109.583 12.012 109.289 12.606 109.181 13.338L114.239 13.32Z" fill="white"/>
<defs>
<linearGradient id="paint0_linear_851_137" x1="22.2983" y1="8.4675" x2="-0.390289" y2="8.4675" gradientUnits="userSpaceOnUse">
<stop stop-color="#7FE9FF"/>
<stop offset="0.490937" stop-color="#F1FDFF"/>
<stop offset="1" stop-color="#FFF2BF"/>
</linearGradient>
<clipPath id="clip0_851_137">
<rect width="22" height="22" rx="11" fill="white"/>
</clipPath>
</defs>
</svg>
